PathFileType	4	(X/Y/Z)	1H_rest_fast_right.trc
DataRate	CameraRate	NumFrames	NumMarkers	Units	OrigDataRate	OrigDataStartFrame	OrigNumFrames
250.00	250.00	21	18	mm	250.00	10905	29078
Frame#	Time	c7	r_should	l_should	clavicle	r_upa	r_elb_l	r_elb_m	r_low	r_wri_l	r_wri_m	r_met	l_upa	l_elb_l	l_elb_m	l_low	l_wri_l	l_wri_m	l_met
	X1	Y1	Z1	X2	Y2	Z2	X3	Y3	Z3	X4	Y4	Z4	X5	Y5	Z5	X6	Y6	Z6	X7	Y7	Z7	X8	Y8	Z8	X9	Y9	Z9	X10	Y10	Z10	X11	Y11	Z11	X12	Y12	Z12	X13	Y13	Z13	X14	Y14	Z14	X15	Y15	Z15	X16	Y16	Z16	X17	Y17	Z17	X18	Y18	Z18
10905	43.61600	628.06238	1420.01282	262.40140	693.12061	1370.98523	397.20190	664.27734	1374.99866	86.41505	756.28900	1282.16492	233.88911	755.06067	1184.44312	479.81476	765.13068	1120.81152	503.41553	707.47516	1061.75305	454.38678	824.26367	1149.52063	381.72806	825.11688	1184.24683	321.87885	832.04114	1115.12903	294.41220	889.15814	1211.30566	260.87277	669.45966	1180.63586	18.22957	686.55707	1071.33179	16.47833	629.54138	1036.82349	75.19719	725.20331	905.18073	24.01973	753.31647	833.95282	57.82202	686.18781	811.21912	39.57570	780.95593	746.81641	33.81637
10906	43.62000	628.04712	1420.00610	262.44504	693.09277	1370.95581	397.23746	664.25391	1375.01245	86.44974	756.26184	1282.15100	233.90710	755.02112	1184.39368	479.81082	765.11829	1120.78687	503.42166	707.43176	1061.78235	454.41229	824.26801	1149.50781	381.74374	824.95709	1184.15588	321.74170	832.00708	1115.09229	294.38345	889.39276	1211.23206	261.11768	669.43158	1180.65320	18.25125	686.53174	1071.34265	16.49789	629.87305	1036.84082	75.15701	725.17645	905.19653	24.03334	753.32343	833.99200	57.86776	686.18341	811.27820	39.61099	780.92932	746.82825	33.81393
10907	43.62400	628.03650	1420.00867	262.47406	693.07208	1370.93298	397.26862	664.23822	1375.02356	86.47347	756.23395	1282.13611	233.92149	754.98987	1184.34570	479.80124	765.09167	1120.74829	503.41071	707.39557	1061.78870	454.39517	824.26300	1149.47473	381.73907	824.74518	1184.04114	321.55283	831.97760	1115.04199	294.34970	889.72260	1211.14807	261.45618	669.41022	1180.66858	18.27065	686.51007	1071.35754	16.51857	629.96985	1036.87000	75.16634	725.15485	905.20581	24.03733	753.30908	834.00763	57.88974	686.16779	811.33215	39.61610	780.90570	746.84058	33.80914
10908	43.62800	628.02502	1420.01270	262.48367	693.05975	1370.91797	397.29532	664.22748	1375.03833	86.48602	756.20953	1282.12451	233.93968	754.95874	1184.29712	479.78305	765.05164	1120.68323	503.37683	707.36707	1061.74829	454.31775	824.23956	1149.41467	381.71280	825.01489	1184.09949	321.79309	831.95782	1114.98950	294.32547	889.25226	1211.15869	260.98990	669.39575	1180.68079	18.29115	686.49304	1071.36914	16.53124	629.97601	1036.87378	75.14405	725.13446	905.21368	24.04330	753.27472	834.00751	57.87800	686.13483	811.35809	39.58518	780.88055	746.85083	33.79970
10909	43.63200	628.01367	1420.01868	262.49524	693.04608	1370.89429	397.31540	664.21735	1375.05225	86.50367	756.18604	1282.11072	233.96239	754.92896	1184.24988	479.76709	765.00146	1120.59167	503.31335	707.33759	1061.67383	454.21368	824.19867	1149.33350	381.67136	825.08362	1184.08752	321.84222	831.94220	1114.93860	294.29947	889.13464	1211.12756	260.86688	669.38354	1180.69238	18.31248	686.47675	1071.38086	16.53879	629.93671	1036.85718	75.11295	725.11267	905.22516	24.04585	753.21613	833.98993	57.83957	686.08234	811.34515	39.54188	780.85583	746.85846	33.78658
10910	43.63600	628.00275	1420.01648	262.51993	693.03491	1370.86609	397.33899	664.20447	1375.05566	86.52992	756.16687	1282.09595	233.98355	754.90002	1184.19934	479.75696	764.94739	1120.49414	503.25208	707.29102	1061.58057	454.10974	824.14697	1149.24255	381.62204	824.93921	1183.98584	321.69391	831.91821	1114.87866	294.28262	889.38269	1211.05261	261.10541	669.36786	1180.68872	18.33657	686.45721	1071.39124	16.55068	629.88574	1036.82324	75.09801	725.08716	905.22949	24.04768	753.14581	833.96307	57.79152	686.01776	811.31146	39.50871	780.81824	746.85675	33.77173
10911	43.64000	627.98694	1420.00684	262.54587	693.01233	1370.83289	397.36874	664.18768	1375.04980	86.55704	756.14941	1282.08032	233.99947	754.86719	1184.14893	479.74408	764.89630	1120.39978	503.20892	707.24530	1061.48315	454.02258	824.10620	1149.16089	381.57553	824.74127	1183.86890	321.50079	831.89874	1114.82690	294.25864	889.72314	1210.96570	261.42719	669.34625	1180.68176	18.35649	686.43402	1071.39331	16.56313	629.83868	1036.79163	75.09740	725.05573	905.22839	24.04798	753.08929	833.94330	57.75861	685.95435	811.27155	39.49646	780.77509	746.84943	33.76105
10912	43.64400	627.96912	1419.99561	262.57614	692.98267	1370.79895	397.39728	664.17462	1375.04578	86.58585	756.13025	1282.06653	234.01576	754.83478	1184.09546	479.73001	764.85138	1120.32727	503.18265	707.19391	1061.42432	453.99838	824.08588	1149.10547	381.56073	825.01746	1183.93152	321.73425	831.87878	1114.78711	294.23792	889.25488	1210.97949	260.94363	669.32123	1180.68176	18.37323	686.40912	1071.39502	16.57800	629.82062	1036.78687	75.11585	725.01807	905.22516	24.05150	753.05188	833.93793	57.76404	685.90906	811.25330	39.51270	780.72821	746.84467	33.75688
10913	43.64800	627.95068	1419.98486	262.60889	692.95312	1370.77637	397.42950	664.15845	1375.04956	86.61335	756.10382	1282.05151	234.03423	754.80127	1184.04004	479.71979	764.81866	1120.28528	503.17557	707.13904	1061.42163	454.02582	824.08862	1149.08008	381.57028	825.08075	1183.92395	321.78409	831.85205	1114.75928	294.21902	889.13135	1210.95337	260.81509	669.29755	1180.68384	18.39178	686.38263	1071.39661	16.59512	629.82538	1036.80286	75.15122	724.97577	905.22589	24.06081	753.03473	833.95062	57.80081	685.88232	811.26703	39.55423	780.67780	746.84106	33.75316
10914	43.65200	627.93585	1419.97656	262.64719	692.92108	1370.74536	397.46448	664.14520	1375.05396	86.64172	756.07703	1282.03540	234.05769	754.76764	1183.98743	479.71500	764.79169	1120.25830	503.18246	707.08929	1061.45020	454.06647	824.09290	1149.06824	381.58560	825.08514	1183.89160	321.79590	831.81567	1114.73145	294.18701	889.09399	1210.91284	260.78131	669.26990	1180.69153	18.40921	686.35394	1071.40002	16.61507	629.84680	1036.84424	75.21096	724.93091	905.22809	24.07151	753.02264	833.97821	57.85240	685.86652	811.30939	39.60264	780.62634	746.83978	33.75544
10915	43.65600	627.92444	1419.97339	262.68970	692.88513	1370.71680	397.49515	664.13727	1375.06763	86.66875	756.04810	1282.01892	234.08209	754.72644	1183.93433	479.71094	764.75397	1120.23401	503.17664	707.04163	1061.48010	454.08197	824.08282	1149.04675	381.59131	825.07104	1183.85022	321.79211	831.77429	1114.69800	294.15005	889.07050	1210.86902	260.77237	669.24457	1180.70264	18.42413	686.32208	1071.40857	16.63488	629.86145	1036.89734	75.25434	724.88617	905.22797	24.08647	752.99683	834.00012	57.89454	685.84320	811.36212	39.63500	780.57434	746.84033	33.76555
10916	43.66000	627.91364	1419.97192	262.72943	692.84967	1370.70300	397.52774	664.13165	1375.09277	86.69052	756.01733	1282.01038	234.10315	754.68243	1183.88647	479.70151	764.70148	1120.19678	503.14600	706.99609	1061.47961	454.04837	824.05408	1149.01038	381.58298	825.04889	1183.81689	321.78159	831.74121	1114.66833	294.11871	889.05359	1210.82764	260.76627	669.22028	1180.72632	18.43734	686.29291	1071.42480	16.64962	629.83606	1036.94080	75.27417	724.84137	905.23749	24.09902	752.94354	834.01025	57.90261	685.80499	811.40198	39.63182	780.52124	746.84393	33.77202
10917	43.66400	627.90479	1419.97461	262.75101	692.82532	1370.69946	397.55804	664.12616	1375.11926	86.70380	755.99036	1282.01538	234.12151	754.64026	1183.85095	479.68561	764.62885	1120.14038	503.09818	706.95807	1061.42822	453.95505	824.00366	1148.95825	381.54333	825.03094	1183.79358	321.77380	831.71582	1114.64319	294.08035	889.04138	1210.79639	260.75800	669.19891	1180.75549	18.44621	686.26752	1071.44482	16.65735	629.77838	1036.95984	75.25139	724.79889	905.25354	24.09843	752.86639	834.01129	57.87685	685.74298	811.41162	39.59781	780.46576	746.85303	33.76941
10918	43.66800	627.89606	1419.98010	262.76523	692.80493	1370.69250	397.57843	664.11963	1375.14160	86.71831	755.96948	1282.02026	234.13216	754.60626	1183.81592	479.66086	764.54962	1120.06934	503.03482	706.93140	1061.33081	453.82358	823.93665	1148.88892	381.48868	825.02057	1183.76953	321.75177	831.68390	1114.62732	294.03485	889.03455	1210.76941	260.75220	669.17932	1180.78284	18.45449	686.24677	1071.46558	16.65881	629.70929	1036.94604	75.22105	724.75616	905.26703	24.09767	752.77155	833.99353	57.83693	685.66663	811.39233	39.55630	780.40601	746.86407	33.76138
10919	43.67200	627.88220	1419.98193	262.78256	692.78070	1370.67505	397.59424	664.11078	1375.15894	86.73952	755.94879	1282.02246	234.14172	754.57428	1183.77808	479.64471	764.48407	1119.99988	502.98108	706.89484	1061.22424	453.69785	823.87878	1148.82092	381.44586	825.01410	1183.75012	321.74179	831.65283	1114.60730	294.00534	889.02942	1210.74927	260.74454	669.15808	1180.79993	18.47065	686.22559	1071.48523	16.66572	629.63885	1036.92554	75.20462	724.71362	905.27740	24.10193	752.67816	833.97076	57.80008	685.58862	811.35571	39.52949	780.34674	746.87097	33.75695
10920	43.67600	627.86578	1419.97900	262.80121	692.75128	1370.65369	397.61618	664.09674	1375.16919	86.75867	755.93329	1282.02197	234.15601	754.54169	1183.73926	479.62527	764.42816	1119.94678	502.94614	706.84119	1061.14709	453.63141	823.84589	1148.77344	381.42072	825.01086	1183.72729	321.72583	831.62653	1114.57922	293.99561	889.02527	1210.72583	260.73413	669.13495	1180.80884	18.48731	686.19775	1071.50012	16.67464	629.58289	1036.91431	75.20445	724.66748	905.28271	24.11158	752.60352	833.96210	57.78598	685.51239	811.32666	39.52985	780.28259	746.87177	33.74890
10921	43.68000	627.85016	1419.97412	262.81540	692.72473	1370.63281	397.63669	664.08063	1375.17651	86.77647	755.91711	1282.02405	234.16249	754.51129	1183.70056	479.59717	764.39203	1119.91260	502.91824	706.77600	1061.12036	453.63028	823.83246	1148.75000	381.41495	824.99896	1183.70752	321.70264	831.58673	1114.54785	293.97534	889.02148	1210.70154	260.72247	669.10815	1180.81763	18.50566	686.17175	1071.50684	16.68409	629.53888	1036.93872	75.22985	724.61688	905.28650	24.11966	752.56287	833.97565	57.79889	685.45374	811.32935	39.55507	780.21460	746.86963	33.74260
10922	43.68400	627.83789	1419.97009	262.83749	692.70209	1370.61157	397.65323	664.07056	1375.18799	86.79439	755.89972	1282.02368	234.16574	754.47949	1183.65552	479.57938	764.37372	1119.89221	502.90829	706.70782	1061.14758	453.67874	823.83887	1148.74805	381.42801	824.98810	1183.68481	321.68884	831.55664	1114.51636	293.95657	889.01697	1210.67651	260.70917	669.08301	1180.82861	18.51727	686.14832	1071.51367	16.69637	629.52460	1036.99426	75.27930	724.56750	905.29181	24.12567	752.54486	834.00690	57.83179	685.41040	811.36029	39.59997	780.14160	746.86462	33.74274
10923	43.68800	627.83215	1419.96631	262.87234	692.69354	1370.58826	397.67935	664.06689	1375.19604	86.81595	755.88446	1282.01086	234.17441	754.44696	1183.60474	479.56943	764.36084	1119.86926	502.90869	706.65643	1061.18616	453.72919	823.85132	1148.74805	381.44778	824.81586	1183.60486	321.53375	831.53687	1114.49561	293.93341	889.28571	1210.61621	260.97754	669.07062	1180.83801	18.53147	686.12720	1071.52539	16.70993	629.54773	1037.04688	75.33846	724.52490	905.29633	24.12824	752.52936	834.03534	57.87401	685.37769	811.40924	39.64188	780.07202	746.85767	33.74290
10924	43.69200	627.82916	1419.96301	262.89835	692.69025	1370.56836	397.70081	664.06860	1375.20789	86.83508	755.86749	1282.00122	234.18808	754.40930	1183.55298	479.56851	764.34308	1119.84082	502.90549	706.62817	1061.20447	453.73471	823.84534	1148.73547	381.45746	824.59387	1183.51160	321.34921	831.51562	1114.46936	293.91687	889.61920	1210.54663	261.32153	669.06238	1180.85413	18.54637	686.10718	1071.53760	16.72579	629.56567	1037.09375	75.37953	724.48175	905.29834	24.13946	752.49768	834.05341	57.90965	685.34326	811.45715	39.66059	780.00928	746.85291	33.74650
10925	43.69600	627.82721	1419.96118	262.91696	692.68073	1370.55615	397.72339	664.07220	1375.22742	86.85221	755.84973	1281.99353	234.20407	754.36914	1183.50842	479.56693	764.30432	1119.79089	502.88760	706.60541	1061.18127	453.67480	823.80621	1148.70142	381.44742	824.68298	1183.52100	321.44638	831.48846	1114.44067	293.90332	889.41370	1210.54041	261.14355	669.04974	1180.87122	18.56104	686.08636	1071.54834	16.74432	629.54840	1037.11450	75.38039	724.43335	905.30591	24.15117	752.43903	834.05298	57.91404	685.29028	811.47839	39.64865	779.93610	746.84924	33.75544
